# xmcd
# 
# Track frame offsets:
#     150
#     15125
#     40460
#     57357
#     72035
#     89257
#     105305
#     120600
#     143405
#     156092
#     168977
#     183030
#     199325
#     227375
# 
# Disc length: 3247
# 
# Revision: 4
# Processed by: cddbd v1.5.2PL0 Copyright (c) Steve Scherf et al.
# Submitted via: fre:ac v1.0.17
# 
DISCID=a20cad0e
DTITLE=Ray Stevens - The Ray Stevens Collection
DYEAR=1993
DGENRE=Comedy
TTITLE0=Take My Hand, Precious Lord
TTITLE1=Shall We Gather at the River
TTITLE2=How Great Thou Art
TTITLE3=The Old Rugged Cross
TTITLE4=Hide Me, Rock of Ages
TTITLE5=Peace in the Valley
TTITLE6=Nearer My God to Thee
TTITLE7=A Mighty Fortress Is Our God
TTITLE8=Farther Along
TTITLE9=Freddie Feelgood (And His Funky Little Five Piece Band)
TTITLE10=Surfin' U.S.S.R.
TTITLE11=I Saw Elvis In U.F.O.
TTITLE12=The Haircut Song
TTITLE13=Everything Is Beautiful
EXTD=YEAR: 1993
EXTT0=
EXTT1=
EXTT2=
EXTT3=
EXTT4=
EXTT5=
EXTT6=
EXTT7=
EXTT8=
EXTT9=
EXTT10=
EXTT11=
EXTT12=
EXTT13=
PLAYORDER=
